# xmcd
# 
# Track frame offsets:
#     150
#     13724
#     31031
#     57963
#     68247
#     90311
#     102857
#     109965
#     126121
#     141352
#     158877
# 
# Disc length: 2431
# 
# Revision: 3
# Processed by: cddbd v1.5.2PL0 Copyright (c) Steve Scherf et al.
# Submitted via: fre:ac v1.0.31
# 
DISCID=8c097d0b
DTITLE=North Mississippi Allstars - Hernando
DYEAR=2008
DGENRE=Rock/Pop
TTITLE0=Shake
TTITLE1=Keep the Devil Down
TTITLE2=Soldier
TTITLE3=Eaglebird
TTITLE4=I'd Love to Be a Hippy
TTITLE5=Mizzip
TTITLE6=Blow Out
TTITLE7=Come Go with Me
TTITLE8=Rooster's Blues
TTITLE9=Take Yo Time, Rodney
TTITLE10=Long Way from Home
EXTD=YEAR: 2008
EXTT0=
EXTT1=
EXTT2=
EXTT3=
EXTT4=
EXTT5=
EXTT6=
EXTT7=
EXTT8=
EXTT9=
EXTT10=
PLAYORDER=
